<svg width="800" height="800" viewBox="0 0 800 800" fill="none" xmlns="http://www.w3.org/2000/svg">
<g clip-path="url(#clip0_22_3)">
<path d="M399.009 220.384C387.447 225.983 375.991 233.741 365.364 244.38C312.097 297.658 263.675 346.08 263.675 346.08L263.695 346.111C263.406 346.402 263.116 346.639 262.825 346.939C249.037 360.737 248.491 382.734 261.223 397.167C261.728 397.747 262.267 398.317 262.825 398.864C277.139 413.198 300.381 413.233 314.75 398.864L370.683 342.931C380.333 346.467 389.82 348.53 398.923 349.561C411.325 350.936 422.973 350.42 433.333 348.959C458.586 345.381 455.942 346.423 470.589 341.609C485.203 336.816 501.623 326.994 501.623 326.994L511.564 336.923C512.659 337.987 538 363.369 550.927 376.275C553.216 378.573 555.159 380.466 556.461 381.82C557.955 383.378 559.62 384.506 560.652 386.011L625.148 450.509C643.739 429.65 664.973 398.584 662.352 362.919L501.192 201.781C501.192 201.781 445.409 197.795 399.009 220.384Z" fill="#FF7A1A"/>
<path d="M407.992 616.191C393.72 601.898 370.553 601.898 356.272 616.191L345.656 626.806C359.905 612.537 359.894 589.422 345.623 575.141C331.342 560.881 308.206 560.881 293.925 575.152C308.206 560.881 308.206 537.745 293.925 523.453C279.655 509.159 256.508 509.183 242.227 523.453C256.508 509.183 256.508 486.036 242.227 471.742C227.955 457.473 204.809 457.473 190.527 471.764L158.558 503.722C144.277 518.014 144.277 541.139 158.558 555.431C172.828 569.703 195.966 569.703 210.245 555.431C195.964 569.703 195.964 592.848 210.245 607.13C224.537 621.4 247.673 621.4 261.955 607.13C247.673 621.4 247.673 644.537 261.955 658.83C276.236 673.1 299.372 673.1 313.655 658.83L324.283 648.191C310.034 662.483 310.044 685.597 324.314 699.88C338.595 714.148 361.731 714.148 376.014 699.88L407.994 667.898C422.262 653.597 422.262 630.461 407.992 616.191Z" fill="#FF7A1A"/>
<path d="M793.73 278.562L605.536 90.3468C597.175 82.0078 583.658 82.0078 575.319 90.3468L514.958 150.706C506.619 159.045 506.619 172.564 514.958 180.914L703.173 369.119C711.502 377.478 725.042 377.478 733.37 369.119L793.73 308.747C802.091 300.431 802.091 286.912 793.73 278.562ZM740.086 320.3C731.102 329.262 716.573 329.262 707.622 320.3C698.661 311.327 698.661 296.798 707.622 287.836C716.573 278.873 731.102 278.873 740.086 287.836C749.048 296.798 749.037 311.327 740.086 320.3Z" fill="#FF7A1A"/>
<path d="M285.027 156.037L224.677 95.6781C216.339 87.3391 202.809 87.3391 194.47 95.6781L6.25469 283.892C-2.08437 292.209 -2.08437 305.75 6.25469 314.078L66.6156 374.459C74.9438 382.789 88.4937 382.789 96.8109 374.459L285.027 186.244C293.377 177.905 293.377 164.386 285.027 156.037ZM92.3719 325.63C83.4094 334.581 68.8719 334.581 59.9078 325.63C50.9469 316.658 50.9469 302.128 59.9078 293.166C68.8703 284.205 83.4094 284.205 92.3719 293.166C101.334 302.128 101.334 316.656 92.3719 325.63Z" fill="#FF7A1A"/>
<path d="M621.138 488.764L609.469 477.073L496.173 363.778L488.544 367.162L480.237 370.161L479.637 370.344C478.175 370.806 464.506 374.986 437.556 378.8C423.306 380.789 409.188 381.036 395.519 379.478C390.114 378.876 384.741 377.994 379.431 376.834L336.061 420.184C310.002 446.244 267.567 446.244 241.508 420.184C240.594 419.261 239.712 418.325 238.897 417.401L238.617 417.089C222.166 398.434 217.986 372.901 225.723 350.744L242.4 324.792L242.369 324.761L344.058 223.083C348.194 218.956 352.536 215.109 357.048 211.476C325.359 205.255 298.773 207.092 298.773 207.092L137.645 368.248C135.475 397.917 155.85 430.434 170.345 449.423C196.427 424.481 237.906 424.805 263.534 450.445C273.077 459.976 279.084 471.722 281.619 484.036C293.955 486.594 305.691 492.591 315.233 502.133C324.775 511.686 330.783 523.431 333.319 535.756C345.644 538.292 357.4 544.287 366.933 553.831C373.305 560.203 378.108 567.555 381.342 575.42C398.686 575.206 416.095 581.695 429.292 594.881C455.308 620.875 455.297 663.214 429.292 689.198L418.653 699.858L423.983 705.189C438.277 719.481 461.411 719.481 475.694 705.189C489.975 690.917 489.975 667.772 475.694 653.489L486.331 664.161C500.623 678.431 523.748 678.431 538.03 664.161C552.311 649.869 552.322 626.733 538.03 612.441C552.322 626.733 575.447 626.733 589.728 612.441C604 598.181 604.031 575.034 589.728 560.741C604.031 575.034 627.156 575.034 641.428 560.741C655.72 546.472 655.72 523.323 641.428 509.053L621.138 488.764Z" fill="#FF7A1A"/>
</g>
<defs>
<clipPath id="clip0_22_3">
<rect width="800" height="800" fill="white"/>
</clipPath>
</defs>
</svg>
