<svg width="800" height="800" viewBox="0 0 800 800" fill="none" xmlns="http://www.w3.org/2000/svg">
<path fill-rule="evenodd" clip-rule="evenodd" d="M399.667 66.6666C215.667 66.6666 66.6667 216 66.6667 400C66.6667 584 215.667 733.333 399.667 733.333C584 733.333 733.333 584 733.333 400C733.333 216 584 66.6666 399.667 66.6666ZM566.667 316.667C566.667 344.333 544.333 366.667 516.667 366.667C489 366.667 466.667 344.333 466.667 316.667C466.667 289 489 266.667 516.667 266.667C544.333 266.667 566.667 289 566.667 316.667ZM283.333 366.667C311 366.667 333.333 344.333 333.333 316.667C333.333 289 311 266.667 283.333 266.667C255.667 266.667 233.333 289 233.333 316.667C233.333 344.333 255.667 366.667 283.333 366.667ZM570.333 466.667C543.667 534.667 477.667 583.333 400 583.333C322.333 583.333 256.333 534.667 229.667 466.667H570.333Z" fill="#FF7A1A"/>
</svg>
