<svg width="800" height="800" viewBox="0 0 800 800" fill="none" xmlns="http://www.w3.org/2000/svg">
<path d="M610.937 189L219.604 580.333C204.938 595 180.271 593 168.271 575.667C126.938 515.333 102.604 444 102.604 370.667V224.333C102.604 197 123.271 166 148.604 155.667L334.27 79.6666C376.27 62.3333 422.937 62.3333 464.937 79.6666L599.937 134.667C621.937 143.667 627.603 172.333 610.937 189Z" fill="#FF7A1A"/>
<path d="M642.333 234.72C664 216.386 697 232.053 697 260.386V370.72C697 533.72 578.667 686.387 417 731.053C406 734.053 394 734.053 382.667 731.053C335.333 717.72 291.334 695.387 253.667 666.053C237.667 653.72 236 630.387 250 616.053C322.667 541.72 535.333 325.053 642.333 234.72Z" fill="#FF7A1A"/>
</svg>
